<svg width="163" height="56" viewBox="0 0 163 56" fill="none" xmlns="http://www.w3.org/2000/svg">
<path d="M156 56V2H163V56H156Z" fill="black"/>
<path d="M127.292 3.22685C129.03 3.22685 130.644 3.55401 132.134 4.20833C133.666 4.86265 134.969 5.76234 136.045 6.9074C137.163 8.09336 138.032 9.4838 138.653 11.0787C139.273 12.6327 139.584 14.3503 139.584 16.2315V21.5069H145.171V2H152V55H145.171V27.5185H139.584V34.7569C139.584 36.7199 139.273 38.4784 138.653 40.0324C138.032 41.5864 137.163 42.9564 136.045 44.1424C134.969 45.2874 133.666 46.1871 132.134 46.8414C130.644 47.4549 129.03 47.7616 127.292 47.7616C125.512 47.7616 123.857 47.4549 122.325 46.8414C120.836 46.1871 119.553 45.2874 118.476 44.1424C117.359 42.9564 116.49 41.5864 115.869 40.0324C115.29 38.4784 115 36.7199 115 34.7569V16.2315C115 14.3503 115.29 12.6327 115.869 11.0787C116.49 9.4838 117.359 8.09336 118.476 6.9074C119.553 5.76234 120.836 4.86265 122.325 4.20833C123.857 3.55401 125.512 3.22685 127.292 3.22685Z" fill="black"/>
<path d="M127.5 42C129.546 42 130.975 41.3048 131.785 39.9145C132.595 38.5242 133 36.6022 133 34.1487V16.8513C133 14.4796 132.595 12.5781 131.785 11.1468C130.975 9.71562 129.546 9 127.5 9C125.453 9 124.025 9.71562 123.215 11.1468C122.405 12.5781 122 14.4796 122 16.8513V34.1487C122 36.6022 122.405 38.5242 123.215 39.9145C124.025 41.3048 125.453 42 127.5 42Z" fill="white"/>
<path d="M99 2H106V56H99V2Z" fill="black"/>
<path d="M71.4071 5H79.2019L94 49.6943H86.4487L75.4263 13.8044L63.6731 50H56L71.4071 5Z" fill="black"/>
<path d="M0 5.41081H14.8495V0H22.2742V5.41081H37V11H0V5.41081Z" fill="black"/>
<path d="M40 43V2H47.0732V17.2405H55V23.4563H47.0732V43H40Z" fill="black"/>
<path d="M18.5 13C20.7918 13 22.8826 13.2651 24.7724 13.7952C26.6621 14.3254 28.2905 15.0798 29.6576 16.0585C31.0246 16.9964 32.0901 18.1179 32.8541 19.4229C33.618 20.7278 34 22.1551 34 23.7048V25.3564C34 26.9468 33.618 28.3945 32.8541 29.6995C32.0901 31.0044 31.0246 32.1259 29.6576 33.0638C28.2905 34.0018 26.6621 34.7358 24.7724 35.266C22.8826 35.7553 20.7918 36 18.5 36C16.2082 36 14.0973 35.7553 12.1673 35.266C10.2776 34.7358 8.64915 34.0222 7.28209 33.125C5.91503 32.1871 4.84955 31.0656 4.0856 29.7606C3.36187 28.4557 3 27.008 3 25.4176V23.7048C3 22.1959 3.36187 20.789 4.0856 19.484C4.84955 18.1791 5.91503 17.0372 7.28209 16.0585C8.64915 15.1206 10.2776 14.3865 12.1673 13.8564C14.0973 13.2855 16.2082 13 18.5 13Z" fill="black"/>
<path d="M10 25.1373C10 26.8366 10.7331 28.2386 12.1993 29.3431C13.6655 30.4477 15.7657 31 18.5 31C21.2343 31 23.3345 30.4477 24.8007 29.3431C26.2669 28.1961 27 26.7941 27 25.1373V23.8628C27 22.3333 26.2669 20.9739 24.8007 19.7843C23.3345 18.5948 21.2343 18 18.5 18C15.7657 18 13.6655 18.5735 12.1993 19.7206C10.7331 20.8676 10 22.2484 10 23.8628V25.1373Z" fill="white"/>
<path d="M48 50.292V56H7V39H14.1198V50.292H48Z" fill="black"/>
</svg>
